<svg width="61" height="59" viewBox="0 0 61 59" fill="none" xmlns="http://www.w3.org/2000/svg">
<mask id="path-1-inside-1_21_97" fill="white">
<path fill-rule="evenodd" clip-rule="evenodd" d="M0 14.75L30.3211 0L60.6423 14.75V44.25L30.3211 59L0 44.25V14.75ZM20.0199 25.1915L30.3131 20.1842L40.6064 25.1915V35.2059L30.3131 40.2132L20.0199 35.2059V25.1915Z"/>
</mask>
<path fill-rule="evenodd" clip-rule="evenodd" d="M0 14.75L30.3211 0L60.6423 14.75V44.25L30.3211 59L0 44.25V14.75ZM20.0199 25.1915L30.3131 20.1842L40.6064 25.1915V35.2059L30.3131 40.2132L20.0199 35.2059V25.1915Z" fill="#172AF4"/>
<path d="M30.3211 0L30.9506 -1.29404L30.3211 -1.60026L29.6916 -1.29404L30.3211 0ZM0 14.75L-0.629495 13.456L-1.43902 13.8498V14.75H0ZM60.6423 14.75H62.0813V13.8498L61.2718 13.456L60.6423 14.75ZM60.6423 44.25L61.2718 45.544L62.0813 45.1502V44.25H60.6423ZM30.3211 59L29.6916 60.294L30.3211 60.6003L30.9506 60.294L30.3211 59ZM0 44.25H-1.43902V45.1502L-0.629495 45.544L0 44.25ZM30.3131 20.1842L30.9426 18.8902L30.3131 18.584L29.6837 18.8902L30.3131 20.1842ZM20.0199 25.1915L19.3904 23.8974L18.5809 24.2912V25.1915H20.0199ZM40.6064 25.1915H42.0454V24.2912L41.2359 23.8974L40.6064 25.1915ZM40.6064 35.2059L41.2359 36.5L42.0454 36.1062V35.2059H40.6064ZM30.3131 40.2132L29.6837 41.5072L30.3131 41.8134L30.9426 41.5072L30.3131 40.2132ZM20.0199 35.2059H18.5809V36.1062L19.3904 36.5L20.0199 35.2059ZM29.6916 -1.29404L-0.629495 13.456L0.629495 16.044L30.9506 1.29404L29.6916 -1.29404ZM61.2718 13.456L30.9506 -1.29404L29.6916 1.29404L60.0128 16.044L61.2718 13.456ZM62.0813 44.25V14.75H59.2033V44.25H62.0813ZM30.9506 60.294L61.2718 45.544L60.0128 42.956L29.6916 57.706L30.9506 60.294ZM-0.629495 45.544L29.6916 60.294L30.9506 57.706L0.629495 42.956L-0.629495 45.544ZM-1.43902 14.75V44.25H1.43902V14.75H-1.43902ZM29.6837 18.8902L19.3904 23.8974L20.6494 26.4855L30.9426 21.4783L29.6837 18.8902ZM41.2359 23.8974L30.9426 18.8902L29.6837 21.4783L39.9769 26.4855L41.2359 23.8974ZM42.0454 35.2059V25.1915H39.1674V35.2059H42.0454ZM30.9426 41.5072L41.2359 36.5L39.9769 33.9119L29.6837 38.9191L30.9426 41.5072ZM19.3904 36.5L29.6837 41.5072L30.9426 38.9191L20.6494 33.9119L19.3904 36.5ZM18.5809 25.1915V35.2059H21.4589V25.1915H18.5809Z" fill="white" mask="url(#path-1-inside-1_21_97)"/>
</svg>
